<?xml version="1.0" encoding="UTF-8" standalone="no"?>
<svg
   xmlns:dc="http://purl.org/dc/elements/1.1/"
   xmlns:cc="http://creativecommons.org/ns#"
   xmlns:rdf="http://www.w3.org/1999/02/22-rdf-syntax-ns#"
   xmlns:svg="http://www.w3.org/2000/svg"
   xmlns="http://www.w3.org/2000/svg"
   xmlns:sodipodi="http://sodipodi.sourceforge.net/DTD/sodipodi-0.dtd"
   xmlns:inkscape="http://www.inkscape.org/namespaces/inkscape"
   inkscape:version="1.0 (4035a4fb49, 2020-05-01)"
   sodipodi:docname="iOS Icon-01.svg"
   xml:space="preserve"
   viewBox="0 0 300 300"
   y="0px"
   x="0px"
   id="Layer_1"
   version="1.2"><metadata
   id="metadata49"><rdf:RDF><cc:Work
       rdf:about=""><dc:format>image/svg+xml</dc:format><dc:type
         rdf:resource="http://purl.org/dc/dcmitype/StillImage" /><dc:title></dc:title></cc:Work></rdf:RDF></metadata><defs
   id="defs47" /><sodipodi:namedview
   inkscape:current-layer="Layer_1"
   inkscape:window-maximized="0"
   inkscape:window-y="0"
   inkscape:window-x="0"
   inkscape:cy="150"
   inkscape:cx="150"
   inkscape:zoom="3.36"
   showgrid="false"
   id="namedview45"
   inkscape:window-height="1419"
   inkscape:window-width="2645"
   inkscape:pageshadow="2"
   inkscape:pageopacity="0"
   guidetolerance="10"
   gridtolerance="10"
   objecttolerance="10"
   borderopacity="1"
   bordercolor="#666666"
   pagecolor="#ffffff" />
<g
   id="g42">
	<path
   id="path2"
   d="M244.94,205.37c3.55-1.51,6.45-3.81,7.25-9.16c0.8-5.35,3.63-42.57,3.63-42.57c-0.21-0.04-0.44-0.06-0.67-0.06   c-0.52,0-1.05,0.1-1.44,0.25c-7.57,3.61-36.57,14.85-41.93,16.88c-5.36,2.03-6.18,6.28-6.35,8.46   c-2.27,24.75-6.38,40.77-6.73,42.15c-0.36,1.38-0.56,2.43,0.15,4.72C208.13,222.92,241.4,206.88,244.94,205.37z"
   fill="none" />
	<path
   id="path4"
   d="M259.17,99.27c-3.32-2.66-15.89-11.47-39.53-21.91c-0.64,1.06-1.1,1.27-1.58,5.1   c-0.47,3.83-3.46,39.57-3.46,39.57s-0.74,2.85,4.77,5.51c5.51,2.66,27.97,14.95,32.55,18.3c1.19,0.82,2.27,1.01,3.01,1.01   c0.59,0,0.96-0.12,0.96-0.12c0.42,0,5.44-22.7,6.9-37.95C263.12,105.35,263.16,102.41,259.17,99.27z"
   fill="none" />
	<path
   id="path6"
   d="M214,71.55c-17.59-13.25-42.49-27.63-44.55-28.61c-1.38-0.66-3.73-1.79-6.92-1.79c-1.57,0-3.34,0.28-5.31,1.01   C151.25,44.39,109,67.7,109,67.7c2.1,3.2,10.6,6.31,13.69,8.03c1.45,0.8,2.89,1.61,4.35,2.37c36.26,18.98,37.8,21.59,42.76,21.99   c0.04,0,0.07,0,0.11,0c2.6,0,4.74-1.71,6.66-3.15c8.03-5.85,30.88-20.79,32.45-21.74S212.86,73.06,214,71.55z"
   fill="none" />
	<path
   id="path8"
   d="M203.02,231.54c1.24,0.65,36.19,25.66,39.28,27.77c1.21,0.65,2.51,0.96,3.8,0.96c0.62,0,1.23-0.07,1.83-0.21   c1.82-0.43,3.5-1.48,4.7-3.09c2.41-3.24,17.77-18.37,26.62-32.33c8.67-12.03,14.86-29.07,17.28-35.61c0.85-2,2.06-3.57,1.61-5.74   c-0.01-0.04-0.02-0.07-0.03-0.11c-0.5-2.13-2.47-3.91-4.06-4.99c-17.12-11.83-27.88-23.15-34.49-24.24c0,0,0.85,4.14,0.44,32.46   l34.65-2.99L260,191.41c0,0,0.67,10.31-2.32,14.76c-2.99,4.46-13.36,7.32-13.36,7.32l2.85,40.71l-8.15-38.13   c0,0-24.2,8.94-38.76,13.05C200.26,229.12,201.77,230.89,203.02,231.54z"
   fill="none" />
	<path
   id="path10"
   d="M130.18,235.78c3.18,0.88,7.1,1.25,11.41,1.25c21.32,0,52.24-9.02,52.24-9.02   c-5.65-11.88-31.07-44.23-37.16-44.86c-0.61-0.19-1.73-0.27-3.13-0.27c-5.8,0-16.49,1.31-16.49,1.32l-42,5.14   C95.05,189.34,119.78,232.89,130.18,235.78z"
   fill="none" />
	<path
   id="path12"
   d="M216.33,20.26c0.1-4.94-5.57-6.92-8.09-7.64c-2.13-0.61-24.41-8.53-68.18-8.53c-7.93,0-16.56,0.26-25.91,0.88   c-6.38,0.63-6.32,6.35-6.32,7.61s0.67,51.75,0.67,51.75l34.32-20.89L110.97,8.73l38.67,31.25c0,0,7.98-5.87,13.26-5.87   c0.29,0,0.58,0.02,0.86,0.06c5.22,0.74,14.27,6.98,14.27,6.98l33.1-25.07l-26.84,27.73c0,0,25.52,19.25,30.96,25.18   C217.03,65.43,216.24,24.84,216.33,20.26z"
   fill="none" />
	<path
   id="path14"
   d="M55.29,245.85c-2.09,3.37-1.65,6.8,1.91,9.53c35.92,24.67,96.7,40.16,96.7,40.16   c1.02,0.22,2.05,0.37,3.08,0.37c2.23,0,4.42-0.72,6.35-3.01c22.71-32.89,27.95-51.68,28.8-54.23c0.85-2.54,2.47-3.7,2.16-5.94   c-20.2,5.19-41.87,7.99-41.87,7.99l6.4,50.28l-12.48-49.15c-1.99,0.4-5.22,0.65-8.61,0.65c-4.02,0-8.27-0.35-11.01-1.2   c-5.04-1.56-10.97-11.24-10.97-11.24l-48.91,14.06c0,0,37.1-16.26,40.58-17.74c3.48-1.48,2.46-4.8,1.75-5.65   c-0.71-0.85-18.88-29.05-18.88-29.05C77.68,215.53,57.41,242.48,55.29,245.85z"
   fill="none" />
	<path
   id="path16"
   d="M29.7,53.78c-5.4,0-7.68,4.01-8.29,5.83c-0.66,1.97-9.1,26.78-12.3,44.34C5.91,121.51,4.15,131,3.8,134.47   c-0.35,3.47-2,20.67-2.17,23.71s-1.34,11.96,0,15.94c1.02,3.05,5.58,5.24,10.46,6.39c4.27,1,20.21,5.45,56.36,5.45   c5.13,0,10.66-0.09,16.63-0.29c0,0-17.74-25.37-23.13-35.97c-1.5-2.6-3.07-3.44-4.63-3.44c-1.29,0-2.58,0.58-3.8,1.23   c-2.69,1.42-36.8,20.54-44.33,24.18l45.7-34.62c0,0-11.86-15.84,4.67-33.58L26.67,59.33l36.87,39.82c0,0,23.63-22.07,35.78-28.84   c0,0-36.2-11.64-68.21-16.44C30.62,53.81,30.15,53.78,29.7,53.78z"
   fill="none" />
	<path
   id="path18"
   d="M272.2,63.63c-0.15-0.19-0.31-0.34-0.48-0.46c-0.62-0.44-1.38-0.54-1.92-0.54c-0.4,0-0.67,0.06-0.67,0.06   s-43.45,8.85-44.52,9.05c-1.08,0.19-3.37,2.92-3.37,2.92L254,89.47l16.75-24.34l-12.33,26.9c13.03,6.57,12.43,8.38,10.85,19.09   l27.68,11.63l-28.25-6.59c-1.26,8.48-7.87,30.58-7.87,30.58c1.27,0,3.51-0.61,4.52-1.17c1.01-0.56,28.22-18.07,29.49-18.93   c1.17-0.8,3.7-2.14,4.1-3.3c0.03-0.11,0.05-0.21,0.05-0.31c0.29-4.49-3.37-19.55-9.08-32.21C284.21,78.16,273.23,64.96,272.2,63.63   z"
   fill="none" />
	<path
   id="path20"
   d="M59.27,121.1c-1.71,17,29.76,63.98,29.76,63.98c9.19-4.63,35-43.34,38.28-49.2c3.39-4.65,1.7-8.46,1.16-9.97   c-6.85-21.03-20.93-50.93-24.2-54.02C98.16,75.39,60.98,104.11,59.27,121.1z"
   fill="none" />
	<path
   id="path22"
   d="M129.9,236.73c3.08,0.86,7.01,1.29,11.68,1.29c21.21,0,52.21-8.97,52.52-9.06l1.13-0.33l-0.5-1.06   c-5.24-11.03-30.66-44.37-37.86-45.41c-0.69-0.19-1.75-0.28-3.33-0.28c-5.8,0-16.18,1.27-16.62,1.32l-42,5.14l-1.49,0.18l0.74,1.3   C95.19,191.61,119.23,233.76,129.9,236.73z M137.05,184.2c0-0.01,10.69-1.32,16.49-1.32c1.4,0,2.52,0.08,3.13,0.27   c6.09,0.63,31.51,32.98,37.16,44.86c0,0-30.92,9.02-52.24,9.02c-4.31,0-8.23-0.37-11.41-1.25c-10.4-2.89-35.13-46.44-35.13-46.44   L137.05,184.2z" />
	<path
   id="path24"
   d="M90.2,189.7l-0.8,1.51c-9.97,18.86-24.51,39.34-31.5,49.17c-1.8,2.54-2.99,4.21-3.44,4.93c-2.47,3.96-1.68,7.92,2.15,10.85   l0.02,0.02l0.02,0.01c35.65,24.48,96.41,40.15,97.02,40.3c1.26,0.27,2.34,0.4,3.32,0.4c2.88,0,5.21-1.1,7.11-3.36l0.03-0.04   l0.03-0.04c14.09-20.41,24.04-39.06,28.75-53.93c0.07-0.23,0.13-0.42,0.18-0.55c0.29-0.88,0.69-1.58,1.08-2.26   c0.67-1.19,1.37-2.41,1.13-4.14l-0.15-1.11l-1.09,0.28c-19.91,5.11-41.54,7.93-41.75,7.96l-0.99,0.13l0.13,0.99l4.33,34.05   l-8.45-33.29l-0.23-0.92l-0.93,0.19c-1.95,0.4-5.1,0.63-8.41,0.63c-4.45,0-8.36-0.42-10.72-1.15c-3.84-1.19-8.82-8.21-10.42-10.81   l-0.4-0.65l-0.73,0.21L81.01,239c10.95-4.79,24.76-10.83,26.8-11.7c1.99-0.85,2.7-2.21,2.94-3.21c0.37-1.52-0.14-3.2-0.81-4   c-0.62-0.79-11.59-17.75-18.81-28.95L90.2,189.7z M107.42,226.38c-3.48,1.48-40.58,17.74-40.58,17.74l48.91-14.06   c0,0,5.93,9.68,10.97,11.24c2.74,0.85,6.99,1.2,11.01,1.2c3.39,0,6.62-0.25,8.61-0.65L158.82,291l-6.4-50.28   c0,0,21.67-2.8,41.87-7.99c0.31,2.24-1.31,3.4-2.16,5.94c-0.85,2.55-6.09,21.34-28.8,54.23c-1.93,2.29-4.12,3.01-6.35,3.01   c-1.03,0-2.06-0.15-3.08-0.37c0,0-60.78-15.49-96.7-40.16c-3.56-2.73-4-6.16-1.91-9.53c2.12-3.37,22.39-30.32,35-54.17   c0,0,18.17,28.2,18.88,29.05C109.88,221.58,110.9,224.9,107.42,226.38z" />
	<path
   id="path26"
   d="M263.8,108.89c0.35-3.69,0.3-7.01-3.99-10.39c-1.27-1.02-13.25-10.34-39.74-22.04l-0.83-0.37l-0.45,0.76   c-0.08,0.14-0.16,0.26-0.24,0.37c-0.64,0.99-1.05,1.76-1.47,5.12c-0.47,3.76-3.28,37.37-3.46,39.55c-0.13,0.69-0.36,3.8,5.33,6.56   c5.78,2.79,28.08,15.05,32.4,18.21c1.42,1,2.74,1.21,3.6,1.21c0.52,0,0.9-0.07,1.11-0.13c0.8-0.06,0.97-0.68,1.87-4.55   c0.61-2.61,1.32-5.98,2.02-9.51C261.03,128.19,262.96,117.68,263.8,108.89z M255.89,146.73c0,0-0.37,0.12-0.96,0.12   c-0.74,0-1.82-0.19-3.01-1.01c-4.58-3.35-27.04-15.64-32.55-18.3c-5.51-2.66-4.77-5.51-4.77-5.51s2.99-35.74,3.46-39.57   c0.48-3.83,0.94-4.04,1.58-5.1c23.64,10.44,36.21,19.25,39.53,21.91c3.99,3.14,3.95,6.08,3.62,9.51   C261.33,124.03,256.31,146.73,255.89,146.73z" />
	<path
   id="path28"
   d="M273.39,63.55c-0.2-0.25-0.34-0.43-0.42-0.53c-0.19-0.25-0.42-0.47-0.68-0.66c-0.83-0.6-1.81-0.73-2.49-0.73   c-0.48,0-0.83,0.06-0.86,0.07c-0.45,0.09-43.46,8.86-44.51,9.05c-1.29,0.23-3.2,2.36-3.95,3.27l-0.85,1.01l1.2,0.54l32.76,14.81   l0.76,0.34l0.47-0.69l10.22-14.85l-7.53,16.43l-0.4,0.88l0.86,0.43c12.08,6.09,11.89,7.36,10.42,17.31l-0.11,0.74l-0.11,0.77   l0.71,0.3l16.78,7.05l-16.74-3.9l-1.06-0.25l-0.16,1.07c-1.24,8.31-7.77,30.22-7.84,30.44l-0.38,1.29h1.34c1.52,0,3.89-0.68,5-1.29   c1.06-0.58,28.31-18.12,29.57-18.98c0.23-0.16,0.53-0.34,0.84-0.54c1.82-1.14,3.24-2.1,3.63-3.26c0.07-0.22,0.1-0.41,0.11-0.6   c0.31-5.02-3.62-20.36-9.17-32.66C288.38,85.04,283.4,76.03,273.39,63.55z M298.99,123.03c0,0.1-0.02,0.2-0.05,0.31   c-0.4,1.16-2.93,2.5-4.1,3.3c-1.27,0.86-28.48,18.37-29.49,18.93c-1.01,0.56-3.25,1.17-4.52,1.17c0,0,6.61-22.1,7.87-30.58   l28.25,6.59l-27.68-11.63c1.58-10.71,2.18-12.52-10.85-19.09l12.33-26.9L254,89.47l-32.76-14.81c0,0,2.29-2.73,3.37-2.92   c1.07-0.2,44.52-9.05,44.52-9.05s0.27-0.06,0.67-0.06c0.54,0,1.3,0.1,1.92,0.54c0.17,0.12,0.33,0.27,0.48,0.46   c1.03,1.33,12.01,14.53,17.71,27.19C295.62,103.48,299.28,118.54,298.99,123.03z" />
	<path
   id="path30"
   d="M210.26,75.58c1.53-0.9,3.43-2.02,4.51-3.46l0.6-0.8l-0.8-0.6C196.85,57.38,171.9,43,169.89,42.04   c-1.49-0.71-3.95-1.89-7.36-1.89c-1.86,0-3.77,0.36-5.67,1.07c-5.97,2.23-46.62,24.65-48.35,25.6l-0.95,0.52l0.59,0.9   c1.71,2.59,6.71,4.9,10.73,6.75c1.36,0.62,2.53,1.16,3.31,1.6l0.31,0.17c1.32,0.73,2.69,1.49,4.06,2.21   c15.36,8.04,24.34,13.06,30.28,16.38c7.91,4.42,9.79,5.47,12.86,5.72h0.03h0.03h0.13c2.81,0,5.03-1.67,6.98-3.14l0.27-0.21   c7.98-5.81,30.66-20.65,32.37-21.69C209.75,75.89,210,75.74,210.26,75.58z M176.57,96.94c-1.92,1.44-4.06,3.15-6.66,3.15   c-0.04,0-0.07,0-0.11,0c-4.96-0.4-6.5-3.01-42.76-21.99c-1.46-0.76-2.9-1.57-4.35-2.37C119.6,74.01,111.1,70.9,109,67.7   c0,0,42.25-23.31,48.22-25.54c1.97-0.73,3.74-1.01,5.31-1.01c3.19,0,5.54,1.13,6.92,1.79c2.06,0.98,26.96,15.36,44.55,28.61   c-1.14,1.51-3.41,2.7-4.98,3.65S184.6,91.09,176.57,96.94z" />
	<path
   id="path32"
   d="M208.53,11.63c-0.13-0.04-0.33-0.1-0.61-0.19c-17.2-5.37-41.3-8.35-67.86-8.35c-8.37,0-17.11,0.29-25.97,0.87   c-2.73,0.27-7.26,1.74-7.25,8.58c0,1.29,0.64,49.74,0.67,51.8l0.02,1.75l1.5-0.91l34.31-20.89l1.04-0.63l-0.82-0.9l-22.78-24.83   l28.26,22.83l0.6,0.48l0.62-0.46c0.08-0.06,7.78-5.67,12.67-5.67c0.25,0,0.5,0.02,0.72,0.05c4.93,0.69,13.75,6.75,13.84,6.81   l0.6,0.41l0.58-0.44l22.71-17.21L183.6,43.1l-0.79,0.81l0.9,0.68c0.25,0.19,25.51,19.27,30.83,25.06l0.98,1.07l0.65-1.3   c1.26-2.51,1.39-18.69,1.21-42.2c-0.03-3.49-0.05-6.01-0.03-6.96C217.41,17.49,215.92,13.75,208.53,11.63z M215.25,68.99   c-5.44-5.93-30.96-25.18-30.96-25.18l26.84-27.73l-33.1,25.07c0,0-9.05-6.24-14.27-6.98c-0.28-0.04-0.57-0.06-0.86-0.06   c-5.28,0-13.26,5.87-13.26,5.87L110.97,8.73l31.85,34.71L108.5,64.33c0,0-0.67-50.49-0.67-51.75s-0.06-6.98,6.32-7.61   c9.35-0.62,17.98-0.88,25.91-0.88c43.77,0,66.05,7.92,68.18,8.53c2.52,0.72,8.19,2.7,8.09,7.64   C216.24,24.84,217.03,65.43,215.25,68.99z" />
	<path
   id="path34"
   d="M104.42,70.65l-0.64,0.37c-5.88,3.36-43.71,32.21-45.5,49.99c-1.73,17.16,28.63,62.71,29.93,64.64l0.49,0.73l0.79-0.4   c9.44-4.76,35.4-43.75,38.68-49.56c3.47-4.81,1.99-8.86,1.35-10.59l-0.09-0.26c-6.93-21.26-21.08-51.23-24.46-54.42L104.42,70.65z    M127.31,135.88c-3.28,5.86-29.09,44.57-38.28,49.2c0,0-31.47-46.98-29.76-63.98c1.71-16.99,38.89-45.71,45-49.21   c3.27,3.09,17.35,32.99,24.2,54.02C129.01,127.42,130.7,131.23,127.31,135.88z" />
	<path
   id="path36"
   d="M31.26,52.87c-0.55-0.05-1.06-0.09-1.56-0.09c-5.21,0-8.23,3.51-9.23,6.51l-0.11,0.34c-2.75,8.18-9.43,28.86-12.22,44.14   l-0.83,4.54c-2.69,14.74-4.17,22.86-4.49,26.07c-0.32,3.22-2,20.64-2.17,23.75c-0.03,0.56-0.1,1.34-0.18,2.24   c-0.37,4.24-0.93,10.65,0.23,14.08c1.46,4.32,8.3,6.37,11.18,7.04c0.25,0.06,0.55,0.13,0.89,0.21c5.34,1.3,21.6,5.26,55.7,5.26   c5.33,0,10.93-0.1,16.66-0.29l1.84-0.06l-1.06-1.51c-0.18-0.25-17.77-25.44-23.06-35.85l-0.01-0.02l-0.01-0.02   c-1.54-2.65-3.33-3.94-5.5-3.94c-1.51,0-2.95,0.65-4.27,1.35c-0.73,0.39-3.72,2.04-7.85,4.34c-6.84,3.8-17.42,9.66-25.65,14.13   l35.94-27.23l0.79-0.6l-0.6-0.8c-0.46-0.62-11.14-15.41,4.61-32.3l0.57-0.61l-0.5-0.67l-21.7-29.13l24.15,26.07l0.68,0.74   l0.73-0.69c0.24-0.22,23.68-22.07,35.58-28.7l2.01-1.12l-2.19-0.7C99.27,69.23,62.99,57.63,31.26,52.87z M63.54,99.15L26.67,59.33   l32.89,44.14c-16.53,17.74-4.67,33.58-4.67,33.58l-45.7,34.62c7.53-3.64,41.64-22.76,44.33-24.18c1.22-0.65,2.51-1.23,3.8-1.23   c1.56,0,3.13,0.84,4.63,3.44c5.39,10.6,23.13,35.97,23.13,35.97c-5.97,0.2-11.5,0.29-16.63,0.29c-36.15,0-52.09-4.45-56.36-5.45   c-4.88-1.15-9.44-3.34-10.46-6.39c-1.34-3.98-0.17-12.9,0-15.94s1.82-20.24,2.17-23.71c0.35-3.47,2.11-12.96,5.31-30.52   c3.2-17.56,11.64-42.37,12.3-44.34c0.61-1.82,2.89-5.83,8.29-5.83c0.45,0,0.92,0.03,1.41,0.09c32.01,4.8,68.21,16.44,68.21,16.44   C87.17,77.08,63.54,99.15,63.54,99.15z" />
	<path
   id="path38"
   d="M198.22,227.33l0.97-0.33c6.91-2.33,26.56-11.55,38.29-17.05c4.04-1.89,6.96-3.26,7.87-3.65c3.16-1.35,6.91-3.69,7.84-9.93   c0.8-5.33,3.52-41.12,3.64-42.64l0.07-0.88l-0.86-0.18c-0.28-0.07-0.58-0.09-0.89-0.09c-0.62,0-1.28,0.12-1.8,0.32l-0.03,0.01   l-0.03,0.02c-7.52,3.59-36.26,14.73-41.85,16.85c-2.94,1.11-6.54,3.63-6.99,9.32c-2.15,23.46-5.96,39.09-6.7,41.98   c-0.4,1.57-0.61,2.78,0.17,5.27L198.22,227.33z M198.7,221.32c0.35-1.38,4.46-17.4,6.73-42.15c0.17-2.18,0.99-6.43,6.35-8.46   c5.36-2.03,34.36-13.27,41.93-16.88c0.39-0.15,0.92-0.25,1.44-0.25c0.23,0,0.46,0.02,0.67,0.06c0,0-2.83,37.22-3.63,42.57   c-0.8,5.35-3.7,7.65-7.25,9.16c-3.54,1.51-36.81,17.55-46.09,20.67C198.14,223.75,198.34,222.7,198.7,221.32z" />
	<path
   id="path40"
   d="M202.52,232.43c0.89,0.5,15.02,10.55,25.33,17.89c6.79,4.83,12.66,9.01,13.85,9.82l0.04,0.03l0.05,0.03   c1.31,0.7,2.79,1.08,4.27,1.08c0.69,0,1.38-0.08,2.06-0.24c2.1-0.49,3.98-1.72,5.27-3.46c0.63-0.85,2.3-2.67,4.42-4.98   c5.89-6.42,15.75-17.17,22.22-27.38c8.49-11.81,14.58-28.24,17.18-35.26l0.21-0.57c0.16-0.38,0.37-0.79,0.57-1.2   c0.74-1.51,1.51-3.07,1.09-5.1c-0.01-0.05-0.02-0.1-0.04-0.16c-0.63-2.63-3.06-4.62-4.46-5.57c-6.77-4.68-12.46-9.21-17.48-13.2   c-7.65-6.09-13.17-10.49-17.41-11.19l-1.41-0.25l0.29,1.42c0.04,0.22,0.82,4.83,0.41,32.24l-0.02,1.11l1.1-0.1l20.49-1.77   l-20.8,4.8l-0.83,0.19l0.05,0.85c0.01,0.1,0.61,10.02-2.15,14.14c-2.75,4.1-12.7,6.89-12.8,6.91l-0.79,0.22l0.06,0.82l1.86,26.54   l-5.18-24.23l-0.24-1.13l-1.08,0.4c-0.24,0.09-24.33,8.97-38.69,13.03l-1.51,0.43l1.02,1.19   C199.64,229.98,201.15,231.71,202.52,232.43z M239.02,216.07l8.15,38.13l-2.85-40.71c0,0,10.37-2.86,13.36-7.32   c2.99-4.45,2.32-14.76,2.32-14.76l34.65-7.99L260,186.41c0.41-28.32-0.44-32.46-0.44-32.46c6.61,1.09,17.37,12.41,34.49,24.24   c1.59,1.08,3.56,2.86,4.06,4.99c0.01,0.04,0.02,0.07,0.03,0.11c0.45,2.17-0.76,3.74-1.61,5.74c-2.42,6.54-8.61,23.58-17.28,35.61   c-8.85,13.96-24.21,29.09-26.62,32.33c-1.2,1.61-2.88,2.66-4.7,3.09c-0.6,0.14-1.21,0.21-1.83,0.21c-1.29,0-2.59-0.31-3.8-0.96   c-3.09-2.11-38.04-27.12-39.28-27.77c-1.25-0.65-2.76-2.42-2.76-2.42C214.82,225.01,239.02,216.07,239.02,216.07z" />
</g>
</svg>
