<svg xmlns="http://www.w3.org/2000/svg" viewBox="0 0 24 24" fill="currentColor"><path d="M17.523 2.27l1.443-1.442a.5.5 0 0 0-.707-.708L16.596 1.783A7.423 7.423 0 0 0 12 .5c-1.648 0-3.18.477-4.496 1.283L5.84.12a.5.5 0 0 0-.707.707L6.577 2.27A7.5 7.5 0 0 0 4.5 8v.5h15V8a7.5 7.5 0 0 0-1.977-5.73zM8.5 6a1 1 0 1 1 0-2 1 1 0 0 1 0 2zm7 0a1 1 0 1 1 0-2 1 1 0 0 1 0 2zM4.5 10v8a2 2 0 0 0 2 2h1v2.5a1.5 1.5 0 0 0 3 0V20h3v2.5a1.5 1.5 0 0 0 3 0V20h1a2 2 0 0 0 2-2v-8h-15zm-3 0a1.5 1.5 0 0 0-1.5 1.5v5a1.5 1.5 0 0 0 3 0v-5A1.5 1.5 0 0 0 1.5 10zm21 0a1.5 1.5 0 0 0-1.5 1.5v5a1.5 1.5 0 0 0 3 0v-5a1.5 1.5 0 0 0-1.5-1.5z"/></svg>